<svg width="16" height="16" viewBox="0 0 16 16" fill="none" xmlns="http://www.w3.org/2000/svg"><path fill-rule="evenodd" clip-rule="evenodd" d="M15.544 10.67A7.986 7.986 0 0 0 16 8a7.986 7.986 0 0 0-3.065-6.297c-.398.838-.807 1.674-1.232 2.507a225.74 225.74 0 0 1-.884 1.715 3.518 3.518 0 0 0-.606-.637c.252-.484.501-.97.75-1.456.443-.868.868-1.74 1.283-2.614a8 8 0 0 0-7.833 13.934l.105-.151a67.183 67.183 0 0 0 2.363-3.684c.274.093.564.152.864.174a68.693 68.693 0 0 1-2.543 3.982l-.013.02a7.984 7.984 0 0 0 2.9.506 244.755 244.755 0 0 0 7.455-5.33zM8 11.5a3.5 3.5 0 1 1 0-7 3.5 3.5 0 0 1 0 7zM10.531.409a7.929 7.929 0 0 0-.553-.162c-3.062 1.777-5.9 4.001-8.489 6.368C.961 7.1.464 7.605.001 8.14c.004.203.015.405.033.605A17.578 17.578 0 0 1 1.77 6.922C4.44 4.479 7.37 2.198 10.53.409z" fill="url(#a)"/><path d="M8.474 15.986a245.15 245.15 0 0 0 6.932-4.956 8.005 8.005 0 0 1-6.932 4.956z" fill="url(#b)"/><defs><linearGradient id="a" y1="16" x2="16" y2="16" gradientUnits="userSpaceOnUse"><stop stop-color="#FFAC0B"/><stop offset="1" stop-color="#FFC702"/></linearGradient><linearGradient id="b" y1="16" x2="16" y2="16" gradientUnits="userSpaceOnUse"><stop stop-color="#FFAC0B"/><stop offset="1" stop-color="#FFC702"/></linearGradient></defs></svg>